HIERARCHY
ROOT Hips
{
	OFFSET 0.00000 0.00000 0.00000
	CHANNELS 6 Xposition Yposition Zposition Zrotation Yrotation Xrotation 
	JOINT LHipJoint
	{
		OFFSET 0 0 0
		CHANNELS 3 Zrotation Yrotation Xrotation
		JOINT LeftUpLeg
		{
			OFFSET 1.64577 -1.42384 0.94276
			CHANNELS 3 Zrotation Yrotation Xrotation
			JOINT LeftLeg
			{
				OFFSET 2.11538 -5.81197 0.00000
				CHANNELS 3 Zrotation Yrotation Xrotation
				JOINT LeftFoot
				{
					OFFSET 2.36541 -6.49893 0.00000
					CHANNELS 3 Zrotation Yrotation Xrotation
					JOINT LeftToeBase
					{
						OFFSET 0.17759 -0.48793 1.73865
						CHANNELS 3 Zrotation Yrotation Xrotation
						End Site
						{
							OFFSET 0.00000 -0.00000 0.91205
						}
					}
				}
			}
		}
	}
	JOINT RHipJoint
	{
		OFFSET 0 0 0
		CHANNELS 3 Zrotation Yrotation Xrotation
		JOINT RightUpLeg
		{
			OFFSET -1.43750 -1.42384 0.94276
			CHANNELS 3 Zrotation Yrotation Xrotation
			JOINT RightLeg
			{
				OFFSET -2.10480 -5.78291 0.00000
				CHANNELS 3 Zrotation Yrotation Xrotation
				JOINT RightFoot
				{
					OFFSET -2.34880 -6.45329 0.00000
					CHANNELS 3 Zrotation Yrotation Xrotation
					JOINT RightToeBase
					{
						OFFSET -0.22842 -0.62757 1.80469
						CHANNELS 3 Zrotation Yrotation Xrotation
						End Site
						{
							OFFSET -0.00000 -0.00000 0.95886
						}
					}
				}
			}
		}
	}
	JOINT LowerBack
	{
		OFFSET 0 0 0
		CHANNELS 3 Zrotation Yrotation Xrotation
		JOINT Spine
		{
			OFFSET 0.06217 1.93758 -0.49272
			CHANNELS 3 Zrotation Yrotation Xrotation
			JOINT Spine1
			{
				OFFSET -0.03114 2.03621 -0.05830
				CHANNELS 3 Zrotation Yrotation Xrotation
				JOINT Neck
				{
					OFFSET 0 0 0
					CHANNELS 3 Zrotation Yrotation Xrotation
					JOINT Neck1
					{
						OFFSET 0.04421 1.41010 0.26562
						CHANNELS 3 Zrotation Yrotation Xrotation
						JOINT Head
						{
							OFFSET -0.13407 1.43847 0.06181
							CHANNELS 3 Zrotation Yrotation Xrotation
							End Site
							{
								OFFSET -0.04980 1.45844 -0.00689
							}
						}
					}
				}
				JOINT LeftShoulder
				{
					OFFSET 0 0 0
					CHANNELS 3 Zrotation Yrotation Xrotation
					JOINT LeftArm
					{
						OFFSET 2.18382 1.47753 -0.35694
						CHANNELS 3 Zrotation Yrotation Xrotation
						JOINT LeftForeArm
						{
							OFFSET 5.05460 -0.00000 0.00000
							CHANNELS 3 Zrotation Yrotation Xrotation
							JOINT LeftHand
							{
								OFFSET 3.39013 -0.00000 0.00000
								CHANNELS 3 Zrotation Yrotation Xrotation
								JOINT LeftFingerBase
								{
									OFFSET 0 0 0
									CHANNELS 3 Zrotation Yrotation Xrotation
									JOINT LeftHandIndex1
									{
										OFFSET 0.57242 -0.00000 -0.00000
										CHANNELS 3 Zrotation Yrotation Xrotation
										End Site
										{
											OFFSET 0.46150 -0.00000 -0.00000
										}
									}
								}
								JOINT LThumb
								{
									OFFSET 0 0 0
									CHANNELS 3 Zrotation Yrotation Xrotation
									End Site
									{
										OFFSET 0.46855 -0.00000 0.46855
									}
								}
							}
						}
					}
				}
				JOINT RightShoulder
				{
					OFFSET 0 0 0
					CHANNELS 3 Zrotation Yrotation Xrotation
					JOINT RightArm
					{
						OFFSET -2.06033 1.72839 -0.47437
						CHANNELS 3 Zrotation Yrotation Xrotation
						JOINT RightForeArm
						{
							OFFSET -5.07010 -0.00000 0.00000
							CHANNELS 3 Zrotation Yrotation Xrotation
							JOINT RightHand
							{
								OFFSET -3.14957 -0.00000 -0.00000
								CHANNELS 3 Zrotation Yrotation Xrotation
								JOINT RightFingerBase
								{
									OFFSET 0 0 0
									CHANNELS 3 Zrotation Yrotation Xrotation
									JOINT RightHandIndex1
									{
										OFFSET -0.71819 -0.00000 -0.00000
										CHANNELS 3 Zrotation Yrotation Xrotation
										End Site
										{
											OFFSET -0.57902 -0.00000 -0.00000
										}
									}
								}
								JOINT RThumb
								{
									OFFSET 0 0 0
									CHANNELS 3 Zrotation Yrotation Xrotation
									End Site
									{
										OFFSET -0.58786 -0.00000 0.58786
									}
								}
							}
						}
					}
				}
			}
		}
	}
}
MOTION
Frames: 7
Frame Time: 0.0166666
21.7496 15.2015 0.3160 -180.9690 -74.9417 178.7680 0.0000 0.0000 0.0000 -14.9431 -0.6524 -3.8136 2.6045 10.0255 29.0593 1.2805 12.5333 -29.1961 0.5875 -4.9076 -13.6453 0.0000 0.0000 0.0000 18.8163 11.3398 -9.3340 -3.5720 -11.5680 34.2203 -0.9947 -11.6373 -26.3606 -3.1069 10.8661 -31.8296 -0.1269 0.9591 8.6812 0.0162 0.8755 7.6921 0.0283 0.2668 3.1156 4.8314 0.6196 -11.2805 -1.7814 0.2135 2.4972 -1.4252 0.0798 2.8047 -0.0000 0.0000 0.0000 -60.1413 -29.3838 14.1794 152.8391 -38.3322 -110.4013 -0.0000 0.0000 -1.7846 -7.3041 -11.4900 1.4626 -7.1250 0.0000 -0.0000 -23.6090 18.7902 16.1749 -0.0000 0.0000 0.0000 94.8431 40.9121 85.4479 -149.1119 41.6426 -108.0046 0.0000 -0.0000 -1.1787 -12.7360 24.5662 -5.3681 7.1250 -0.0000 -0.0000 10.2228 -5.2052 9.4075
21.7807 15.3564 0.3355 -182.6240 -72.3083 181.6870 0.0000 0.0000 0.0000 -16.3757 -1.7281 -1.9044 1.9124 8.6812 24.8030 1.1815 15.0253 -30.7867 0.0864 -1.8958 -5.2179 0.0000 0.0000 0.0000 18.3418 14.3766 -8.3321 -2.9345 -10.5882 30.9033 -0.7170 -12.5839 -25.0606 -2.9430 10.6022 -30.9497 -0.3025 0.7207 8.6069 0.4589 0.5517 7.4266 0.6031 0.0906 2.8707 5.8496 1.1740 -10.8027 -4.1226 0.9492 1.6585 -2.3422 0.3634 2.5060 0.0000 -0.0000 0.0000 -49.7404 -31.8333 5.2743 145.9672 -44.1090 -105.8641 -0.0000 0.0000 -0.5240 -8.1979 -12.5251 1.7895 -7.1250 0.0000 -0.0000 -24.0171 17.8212 17.0889 0.0000 -0.0000 0.0000 94.3624 42.1951 86.5020 -149.1200 41.6359 -108.0099 0.0000 -0.0000 -1.9918 -12.5059 24.0921 -5.1735 7.1250 -0.0000 -0.0000 10.3427 -5.7057 9.4216
21.8294 15.4658 0.3420 -182.8930 -70.8621 183.2590 0.0000 0.0000 0.0000 -17.0859 -3.8087 -0.3872 1.3995 7.4837 21.1567 1.1103 17.3101 -32.5706 0.0010 0.2088 0.5736 0.0000 0.0000 0.0000 18.2647 17.0183 -7.7809 -2.5065 -9.8497 28.4915 -0.5170 -13.8912 -24.7691 -2.7978 10.3603 -30.1517 -0.2183 0.4968 8.1586 0.8786 0.2608 7.3056 1.0081 -0.0586 2.9931 7.5527 1.3773 -10.7836 -6.7212 1.1155 1.5625 -3.5601 0.3710 2.5556 0.0000 -0.0000 0.0000 -35.8192 -37.1778 -3.5147 132.7027 -51.8456 -95.9680 -0.0000 -0.0000 0.1839 -9.3502 -10.5797 1.7316 -7.1250 0.0000 -0.0000 -25.0601 19.5860 16.8907 0.0000 -0.0000 0.0000 93.6644 43.4416 85.9087 -149.2281 41.5459 -108.0817 0.0000 -0.0000 -2.1998 -12.5653 23.3876 -5.0561 7.1250 -0.0000 -0.0000 10.2773 -6.4003 9.2208
21.9059 15.5179 0.3402 -185.5580 -71.0790 186.7010 0.0000 0.0000 0.0000 -18.2169 -5.9211 0.8396 1.0533 6.5258 18.3180 0.8557 18.8561 -32.6397 0.0191 0.8933 2.4553 0.0000 0.0000 0.0000 17.2352 17.8874 -7.9289 -2.2807 -9.4279 27.1431 -0.4225 -14.8840 -25.0975 -2.6940 10.1824 -29.5693 -0.9521 0.0082 7.9745 1.2120 -0.4328 7.3094 1.8005 -0.4463 3.1218 7.6720 1.2140 -10.1415 -8.4146 0.9615 1.2169 -3.7505 0.2304 2.0862 0.0000 0.0000 0.0000 -19.4946 -44.0315 -13.3278 103.1938 -59.3319 -71.4005 -0.0000 -0.0000 2.2088 -5.3541 -11.7605 1.0943 -7.1250 0.0000 -0.0000 -22.3147 18.5586 15.2516 0.0000 0.0000 0.0000 92.4660 44.4595 84.6011 -149.6551 41.1872 -108.3639 0.0000 -0.0000 -3.1445 -15.7731 22.5359 -6.1786 7.1250 -0.0000 -0.0000 8.2388 -6.8547 7.2741
21.9972 15.5301 0.3337 -187.3780 -72.0096 188.5850 0.0000 0.0000 0.0000 -18.6712 -7.9949 2.0109 0.8518 5.8861 16.4543 0.5185 20.3194 -32.2265 0.0039 0.4030 1.1074 0.0000 0.0000 0.0000 16.7305 17.7321 -8.1754 -2.2453 -9.3594 26.9262 -0.5099 -14.9658 -25.9107 -2.2756 9.4179 -27.1116 -1.6655 -0.5324 8.8128 1.8664 -1.2344 7.3783 2.9365 -0.9040 2.8004 7.2415 1.0640 -10.1298 -9.7191 0.8700 1.5263 -4.0879 0.1299 2.1808 0.0000 -0.0000 0.0000 -1.7191 -49.9722 -24.9543 60.9461 -56.5568 -35.1294 -0.0000 -0.0000 4.2926 -0.0042 -13.1482 0.0010 -7.1250 0.0000 -0.0000 -18.6502 17.2123 13.0079 0.0000 -0.0000 0.0000 91.1498 44.9796 83.2993 -149.9550 40.9319 -108.5609 0.0000 -0.0000 -2.9399 -16.1246 21.5118 -6.0514 7.1250 -0.0000 -0.0000 7.9622 -7.8482 6.8688
22.0967 15.5325 0.3306 -189.2460 -73.2754 190.7310 0.0000 0.0000 0.0000 -18.7738 -9.0773 1.6682 0.7998 5.7081 15.9398 0.4550 19.8967 -31.3116 0.0083 0.5884 1.6169 0.0000 0.0000 0.0000 16.1853 17.0663 -9.1984 -2.2783 -9.4232 27.1283 -0.4482 -15.4992 -26.0243 -2.2832 9.4325 -27.1579 -1.7179 -1.4239 9.1961 2.0717 -2.4574 7.5688 3.2611 -1.5399 2.8861 6.2594 1.1373 -10.0130 -9.7097 1.0951 1.6540 -3.9115 0.2318 2.2149 -0.0000 0.0000 0.0000 16.8638 -53.9686 -39.3316 30.1653 -41.0346 -11.5180 -0.0000 -0.0000 7.1091 7.7431 -15.5178 -2.0834 -7.1250 0.0000 -0.0000 -13.3566 14.6127 9.8304 -0.0000 0.0000 0.0000 91.5735 45.1813 83.6855 -150.0731 40.8307 -108.6382 0.0000 -0.0000 -2.7906 -16.1768 20.9109 -5.9112 7.1250 -0.0000 -0.0000 7.8985 -8.4526 6.7175
22.1762 15.5323 0.3349 -189.3700 -74.3399 190.8200 0.0000 0.0000 0.0000 -18.3881 -9.4462 1.0141 0.8319 5.8186 16.2589 0.3155 19.6116 -30.0263 0.0025 0.3244 0.8914 0.0000 0.0000 0.0000 16.3518 16.5915 -9.6528 -2.3186 -9.5003 27.3732 -0.4609 -15.8224 -26.5011 -2.0895 9.0500 -25.9520 -2.0009 -2.0254 10.0297 2.9716 -3.3331 7.6145 4.4538 -2.0311 2.6241 5.3526 1.3100 -9.9557 -10.2942 1.4947 2.2221 -3.9233 0.3877 2.4093 0.0000 -0.0000 0.0000 32.8552 -56.8009 -56.5445 13.3148 -21.7467 -2.5688 -0.0000 -0.0000 15.0602 11.8849 -15.2050 -3.1594 -7.1250 0.0000 -0.0000 -10.5973 14.6397 7.7102 0.0000 -0.0000 0.0000 91.3143 44.5641 84.1572 -149.9585 40.9289 -108.5632 0.0000 -0.0000 -3.4596 -16.0628 20.5812 -5.7797 7.1250 -0.0000 -0.0000 7.9553 -8.8022 6.7110
